<svg
    width="16"
    height="14"
    viewBox="11 0 16 14"
    fill="none"
    xmlns="http://www.w3.org/2000/svg"
>
    <path
        d="M16.9255 11.2233C17.4101 10.7944 17.54 10.1424 17.2155 9.76716C16.8911 9.3919 16.2352 9.43544 15.7505 9.8644C15.2659 10.2934 15.1361 10.9453 15.4605 11.3206C15.785 11.6959 16.4409 11.6523 16.9255 11.2233Z"
        fill="white"
    />
    <path
        d="M22.8371 11.2229C23.3218 10.7939 23.4516 10.1419 23.1272 9.76668C22.8027 9.39141 22.1468 9.43495 21.6622 9.86391C21.1775 10.2929 21.0477 10.9448 21.3722 11.3201C21.6966 11.6954 22.3525 11.6518 22.8371 11.2229Z"
        fill="white"
    />
    <path
        d="M22.818 2.56362L21.3902 7.88835H13.9492L14.1271 7.24068H16.0386C16.2189 7.24036 16.3956 7.18922 16.5488 7.093C16.702 6.99678 16.8256 6.85927 16.9059 6.69592C16.9862 6.53256 17.0199 6.34981 17.0032 6.16815C16.9866 5.9865 16.9202 5.81313 16.8117 5.66749C16.7217 5.54625 16.6049 5.44797 16.4707 5.3805C16.3364 5.31303 16.1885 5.27823 16.0386 5.27889H14.648L14.8209 4.63319H18.7046C18.9155 4.632 19.1203 4.56183 19.2886 4.43316C19.4568 4.30449 19.5793 4.12422 19.6379 3.91928C19.678 3.77361 19.6843 3.62054 19.6562 3.47203C19.6281 3.32352 19.5665 3.18358 19.4762 3.06315C19.3858 2.94272 19.2691 2.84506 19.1353 2.77779C19.0015 2.71051 18.8541 2.67546 18.7046 2.67536H15.3467L15.377 2.56362C15.4161 2.41305 15.5 2.27826 15.6173 2.17746C15.7346 2.07667 15.8796 2.01472 16.0328 2H22.4593C22.7486 2.01483 22.9079 2.26599 22.818 2.56362Z"
        fill="white"
    />
    <path
        d="M25.9515 6.8155L24.8501 4.75878C24.8025 4.67503 24.7329 4.60617 24.6492 4.55977C24.5654 4.51338 24.4706 4.49123 24.3752 4.49576H22.922L21.847 8.54393H12.6606C12.6099 8.5471 12.5614 8.56612 12.5218 8.59835C12.4823 8.63059 12.4536 8.67445 12.4397 8.7239L12.2609 9.39629C12.2522 9.41616 12.2487 9.43789 12.2504 9.45952C12.2522 9.48114 12.2593 9.50198 12.271 9.52014C12.2828 9.5383 12.2988 9.55321 12.3177 9.56353C12.3365 9.57384 12.3577 9.57923 12.3791 9.57922H13.5518L13.4355 10.0093C13.4206 10.0502 13.4159 10.0941 13.4219 10.1372C13.4279 10.1804 13.4444 10.2213 13.4698 10.2564C13.4953 10.2915 13.529 10.3196 13.5679 10.3383C13.6067 10.3569 13.6496 10.3656 13.6926 10.3633H14.7998C15.1301 9.47935 16.0859 8.84058 16.9352 8.93748C17.6544 9.02054 18.0835 9.61382 17.9662 10.3673H20.7123C21.0427 9.4833 21.9984 8.84453 22.8467 8.94143C23.567 9.02054 23.997 9.61382 23.8777 10.3673H24.7788C24.8805 10.362 24.9781 10.3246 25.0578 10.2604C25.1376 10.1963 25.1955 10.1085 25.2234 10.0093L25.9818 7.14675C26.0136 7.03644 26.0028 6.91803 25.9515 6.8155Z"
        fill="white"
    />
    <path
        d="M19.0259 3.74806C19.0061 3.81893 18.964 3.88132 18.906 3.92575C18.848 3.97019 18.7772 3.99425 18.7044 3.99428H13.519C13.4933 3.99432 13.468 3.98827 13.445 3.97661C13.4221 3.96495 13.4021 3.94801 13.3868 3.92714C13.3715 3.90627 13.3613 3.88206 13.3569 3.85645C13.3525 3.83085 13.3541 3.80456 13.3616 3.77971L13.4594 3.43461C13.4688 3.39969 13.4893 3.36888 13.5177 3.3469C13.5461 3.32492 13.5809 3.31301 13.6167 3.31299H18.7044C18.7565 3.31299 18.8079 3.32529 18.8545 3.3489C18.9011 3.37252 18.9416 3.40681 18.9729 3.44905C19.0041 3.49128 19.0251 3.5403 19.0343 3.59221C19.0435 3.64411 19.0407 3.69748 19.0259 3.74806Z"
        fill="white"
    />
    <path
        d="M11.0063 6.39127L11.104 6.04617C11.1135 6.01152 11.1339 5.98095 11.1621 5.95915C11.1903 5.93736 11.2249 5.92555 11.2604 5.92554H16.0393C16.1279 5.92554 16.2129 5.96117 16.2756 6.02459C16.3383 6.088 16.3735 6.17402 16.3735 6.26371C16.3735 6.3534 16.3383 6.43941 16.2756 6.50283C16.2129 6.56625 16.1279 6.60188 16.0393 6.60188H11.1637C11.1383 6.60195 11.1134 6.59607 11.0907 6.58469C11.068 6.57331 11.0483 6.55675 11.033 6.53632C11.0177 6.51589 11.0074 6.49215 11.0028 6.46698C10.9981 6.4418 10.9993 6.41588 11.0063 6.39127Z"
        fill="white"
    />
</svg>