<svg
    width="14"
    height="14"
    viewBox="0 0 14 14"
    fill="none"
    xmlns="http://www.w3.org/2000/svg"
>
    <path
        d="M3.5 2.5C4.05906 2.19675 7 -5.13771e-09 11.5 0V14C10.3688 14 8.38503 13.8357 7.82597 13.5451C6.13977 12.6733 7.42471 13.4224 6 12.5C5.55816 12.2094 4.44184 11.1805 4 9.5C4 9.5 6.81921 11.2735 7.5 10C8 8.5 6.5 7.5 5 7.5C4.5 7.5 2 8.66065 0 5.5C0 5.5 3.5 6 4.5 5C5.5 4 7.01217 3.29783 8.5 3.5C8.5 3.5 6.73309 1.8 3.5 2.5Z"
        fill="#26AA99"
    />
    <path
        d="M11 0H14V14H11V0Z"
        fill="#26AA99"
    />
</svg>

