  <svg
    xmlns="http://www.w3.org/2000/svg"
    width="16"
    height="10"
    viewBox="0 0 16 10"
    fill="none"
  >
    <path
      d="M6.03523 9.22335C6.52887 8.79438 6.66113 8.14243 6.33064 7.76716C6.00015 7.3919 5.33205 7.43544 4.8384 7.8644C4.34476 8.29337 4.2125 8.94532 4.54299 9.32059C4.87349 9.69585 5.54158 9.65232 6.03523 9.22335Z"
      fill="#26AA99"
    />
    <path
      d="M12.0577 9.2231C12.5513 8.79414 12.6836 8.14218 12.3531 7.76692C12.0226 7.39166 11.3545 7.43519 10.8609 7.86416C10.3672 8.29312 10.235 8.94508 10.5655 9.32034C10.8959 9.69561 11.564 9.65207 12.0577 9.2231Z"
      fill="#26AA99"
    />
    <path
      d="M12.0379 0.56362L10.5835 5.88835H3.00415L3.18532 5.24068H5.13243C5.31609 5.24036 5.49603 5.18922 5.65206 5.093C5.8081 4.99678 5.93406 4.85927 6.01583 4.69592C6.09759 4.53256 6.13192 4.34981 6.11496 4.16815C6.09801 3.9865 6.03044 3.81313 5.91984 3.66749C5.82815 3.54625 5.70921 3.44797 5.5725 3.3805C5.43578 3.31303 5.28509 3.27823 5.13243 3.27889H3.7159L3.8921 2.63319H7.84803C8.06282 2.632 8.27146 2.56183 8.4428 2.43316C8.61414 2.30449 8.73898 2.12422 8.79869 1.91928C8.83951 1.77361 8.84587 1.62054 8.81729 1.47203C8.7887 1.32352 8.72593 1.18358 8.63389 1.06315C8.54185 0.942722 8.42303 0.845056 8.28671 0.777785C8.15039 0.710514 8.00025 0.675458 7.84803 0.675356H4.42765L4.45851 0.56362C4.49837 0.413049 4.58379 0.278259 4.70325 0.177463C4.8227 0.0766669 4.97043 0.0147227 5.12646 0L11.6726 0C11.9672 0.0148321 12.1295 0.265989 12.0379 0.56362Z"
      fill="#26AA99"
    />
    <path
      d="M15.2303 4.81544L14.1084 2.75872C14.0599 2.67496 13.9891 2.60611 13.9037 2.55971C13.8184 2.51332 13.7218 2.49117 13.6246 2.4957H12.1444L11.0494 6.54387H1.69212C1.64048 6.54704 1.5911 6.56605 1.5508 6.59829C1.51051 6.63053 1.48128 6.67439 1.46715 6.72384L1.28498 7.39623C1.27621 7.4161 1.27257 7.43783 1.27438 7.45946C1.27619 7.48108 1.2834 7.50192 1.29536 7.52008C1.30732 7.53824 1.32364 7.55315 1.34286 7.56346C1.36208 7.57378 1.38359 7.57917 1.40543 7.57916H2.59998L2.48152 8.00929C2.4663 8.05012 2.46153 8.09406 2.46762 8.13718C2.47372 8.18029 2.4905 8.22123 2.51645 8.25632C2.5424 8.29141 2.57671 8.31955 2.61631 8.33822C2.65591 8.35688 2.69955 8.3655 2.74332 8.36328H3.87117C4.20764 7.47929 5.18119 6.84052 6.04624 6.93742C6.7789 7.02048 7.2159 7.61376 7.09645 8.36724H9.89368C10.2301 7.48324 11.2037 6.84447 12.0677 6.94137C12.8014 7.02048 13.2394 7.61376 13.118 8.36724H14.0358C14.1394 8.36192 14.2388 8.32456 14.32 8.26038C14.4012 8.1962 14.4602 8.10841 14.4887 8.00929L15.2612 5.14669C15.2936 5.03638 15.2825 4.91797 15.2303 4.81544Z"
      fill="#26AA99"
    />
    <path
      d="M8.17512 1.74831C8.15496 1.81917 8.11207 1.88156 8.05296 1.926C7.99385 1.97044 7.92175 1.9945 7.84762 1.99452H2.56573C2.53957 1.99457 2.51377 1.98852 2.49039 1.97686C2.46701 1.9652 2.44671 1.94825 2.43112 1.92738C2.41553 1.90651 2.40509 1.8823 2.40064 1.8567C2.39618 1.83109 2.39783 1.80481 2.40546 1.77995L2.50501 1.43486C2.51461 1.39994 2.5355 1.36912 2.56446 1.34714C2.59341 1.32517 2.62884 1.31325 2.66528 1.31323H7.84762C7.90071 1.31323 7.95307 1.32553 8.00054 1.34915C8.04801 1.37277 8.08928 1.40706 8.12107 1.44929C8.15286 1.49153 8.1743 1.54055 8.18368 1.59245C8.19307 1.64436 8.19014 1.69772 8.17512 1.74831Z"
      fill="#26AA99"
    />
    <path
      d="M0.00643111 4.39127L0.105977 4.04617C0.115567 4.01152 0.136344 3.98095 0.165116 3.95915C0.193889 3.93736 0.229067 3.92555 0.265249 3.92554H5.13302C5.22332 3.92554 5.30991 3.96117 5.37375 4.02459C5.4376 4.088 5.47347 4.17402 5.47347 4.26371C5.47347 4.3534 5.4376 4.43941 5.37375 4.50283C5.30991 4.56625 5.22332 4.60188 5.13302 4.60188H0.166699C0.140919 4.60195 0.115476 4.59607 0.0923796 4.58469C0.0692836 4.57331 0.049168 4.55675 0.0336227 4.53632C0.0180774 4.51589 0.00752824 4.49215 0.00280903 4.46698C-0.00191019 4.4418 -0.00067016 4.41588 0.00643111 4.39127Z"
      fill="#26AA99"
    />
  </svg>